HIERARCHY
ROOT Root
{
  OFFSET 0.0 0.0 0.0
  CHANNELS 6 Xposition Yposition Zposition Zrotation Yrotation Xrotation
  JOINT Hips
  {
    OFFSET 0.0 100.0 0.0
    CHANNELS 6 Xposition Yposition Zposition Zrotation Yrotation Xrotation
    JOINT Spine1
    {
      OFFSET 5.003913 -0.037094 -0.013727
      CHANNELS 3 Zrotation Yrotation Xrotation
      JOINT Spine2
      {
        OFFSET 7.125363 -1e-06 0.0
        CHANNELS 3 Zrotation Yrotation Xrotation
        JOINT Chest
        {
          OFFSET 7.594027 1e-06 0.0
          CHANNELS 3 Zrotation Yrotation Xrotation
          JOINT Neck1
          {
            OFFSET 26.313086 -0.460272 -0.181672
            CHANNELS 3 Zrotation Yrotation Xrotation
            JOINT Neck2
            {
              OFFSET 8.045911 0.0 0.0
              CHANNELS 3 Zrotation Yrotation Xrotation
              JOINT Head
              {
                OFFSET 6.432774 0.0 0.0
                CHANNELS 3 Zrotation Yrotation Xrotation
                JOINT HeadEnd
                {
                  OFFSET 16.169773 0.06451 0.00362
                  CHANNELS 3 Zrotation Yrotation Xrotation
                }
                JOINT Jaw
                {
                  OFFSET 0.108741 3.12938 0.002639
                  CHANNELS 3 Zrotation Yrotation Xrotation
                }
                JOINT LeftEye
                {
                  OFFSET 4.45173 8.166359 3.206392
                  CHANNELS 3 Zrotation Yrotation Xrotation
                }
                JOINT RightEye
                {
                  OFFSET 4.436895 8.135758 -3.222429
                  CHANNELS 3 Zrotation Yrotation Xrotation
                }
              }
            }
          }
          JOINT LeftShoulder
          {
            OFFSET 23.218927 5.195579 1.621656
            CHANNELS 3 Zrotation Yrotation Xrotation
            JOINT LeftArm
            {
              OFFSET 15.902118 2e-06 -2e-06
              CHANNELS 3 Zrotation Yrotation Xrotation
              JOINT LeftForeArm
              {
                OFFSET 28.739307 0.0 -1e-06
                CHANNELS 3 Zrotation Yrotation Xrotation
                JOINT LeftHand
                {
                  OFFSET 27.093981 -4e-06 0.0
                  CHANNELS 3 Zrotation Yrotation Xrotation
                  JOINT LeftHandThumb1
                  {
                    OFFSET 2.276781 3.380274 0.83384
                    CHANNELS 3 Zrotation Yrotation Xrotation
                    JOINT LeftHandThumb2
                    {
                      OFFSET 4.705309 -1e-06 -1e-06
                      CHANNELS 3 Zrotation Yrotation Xrotation
                      JOINT LeftHandThumb3
                      {
                        OFFSET 2.798515 0.0 3e-06
                        CHANNELS 3 Zrotation Yrotation Xrotation
                        JOINT LeftHandThumbEnd
                        {
                          OFFSET 3.180793 4e-06 -4e-06
                          CHANNELS 3 Zrotation Yrotation Xrotation
                        }
                      }
                    }
                  }
                  JOINT LeftHandIndex1
                  {
                    OFFSET 3.247786 2.352677 0.137192
                    CHANNELS 3 Zrotation Yrotation Xrotation
                    JOINT LeftHandIndex2
                    {
                      OFFSET 6.367095 1e-06 0.0
                      CHANNELS 3 Zrotation Yrotation Xrotation
                      JOINT LeftHandIndex3
                      {
                        OFFSET 3.662364 0.0 0.0
                        CHANNELS 3 Zrotation Yrotation Xrotation
                        JOINT LeftHandIndex4
                        {
                          OFFSET 2.329242 4e-06 -4e-06
                          CHANNELS 3 Zrotation Yrotation Xrotation
                          JOINT LeftHandIndexEnd
                          {
                            OFFSET 2.767823 1e-06 0.0
                            CHANNELS 3 Zrotation Yrotation Xrotation
                          }
                        }
                      }
                    }
                  }
                  JOINT LeftHandMiddle1
                  {
                    OFFSET 3.163612 0.945023 -0.406112
                    CHANNELS 3 Zrotation Yrotation Xrotation
                    JOINT LeftHandMiddle2
                    {
                      OFFSET 6.276789 3e-06 0.0
                      CHANNELS 3 Zrotation Yrotation Xrotation
                      JOINT LeftHandMiddle3
                      {
                        OFFSET 4.35652 -1e-06 4e-06
                        CHANNELS 3 Zrotation Yrotation Xrotation
                        JOINT LeftHandMiddle4
                        {
                          OFFSET 2.996877 0.0 8e-06
                          CHANNELS 3 Zrotation Yrotation Xrotation
                          JOINT LeftHandMiddleEnd
                          {
                            OFFSET 2.323256 3e-06 -4e-06
                            CHANNELS 3 Zrotation Yrotation Xrotation
                          }
                        }
                      }
                    }
                  }
                  JOINT LeftHandRing1
                  {
                    OFFSET 2.882606 -0.309162 0.107445
                    CHANNELS 3 Zrotation Yrotation Xrotation
                    JOINT LeftHandRing2
                    {
                      OFFSET 6.033198 0.0 4e-06
                      CHANNELS 3 Zrotation Yrotation Xrotation
                      JOINT LeftHandRing3
                      {
                        OFFSET 4.350578 3e-06 0.0
                        CHANNELS 3 Zrotation Yrotation Xrotation
                        JOINT LeftHandRing4
                        {
                          OFFSET 2.651321 2e-06 -7e-06
                          CHANNELS 3 Zrotation Yrotation Xrotation
                          JOINT LeftHandRingEnd
                          {
                            OFFSET 1.937663 1e-06 -4e-06
                            CHANNELS 3 Zrotation Yrotation Xrotation
                          }
                        }
                      }
                    }
                  }
                  JOINT LeftHandPinky1
                  {
                    OFFSET 2.865315 -1.525436 0.575687
                    CHANNELS 3 Zrotation Yrotation Xrotation
                    JOINT LeftHandPinky2
                    {
                      OFFSET 5.54936 1e-06 -8e-06
                      CHANNELS 3 Zrotation Yrotation Xrotation
                      JOINT LeftHandPinky3
                      {
                        OFFSET 3.070974 0.0 -4e-06
                        CHANNELS 3 Zrotation Yrotation Xrotation
                        JOINT LeftHandPinky4
                        {
                          OFFSET 1.549672 1e-06 0.0
                          CHANNELS 3 Zrotation Yrotation Xrotation
                          JOINT LeftHandPinkyEnd
                          {
                            OFFSET 1.952123 0.0 0.0
                            CHANNELS 3 Zrotation Yrotation Xrotation
                          }
                        }
                      }
                    }
                  }
                }
              }
            }
          }
          JOINT RightShoulder
          {
            OFFSET 23.161716 5.296122 -1.380114
            CHANNELS 3 Zrotation Yrotation Xrotation
            JOINT RightArm
            {
              OFFSET -16.027195 -2e-06 1.1e-05
              CHANNELS 3 Zrotation Yrotation Xrotation
              JOINT RightForeArm
              {
                OFFSET -28.736639 4e-06 2e-06
                CHANNELS 3 Zrotation Yrotation Xrotation
                JOINT RightHand
                {
                  OFFSET -27.133619 6e-06 0.0
                  CHANNELS 3 Zrotation Yrotation Xrotation
                  JOINT RightHandThumb1
                  {
                    OFFSET -2.274328 -3.351035 -0.83067
                    CHANNELS 3 Zrotation Yrotation Xrotation
                    JOINT RightHandThumb2
                    {
                      OFFSET -4.703594 -3e-06 2e-06
                      CHANNELS 3 Zrotation Yrotation Xrotation
                      JOINT RightHandThumb3
                      {
                        OFFSET -2.794935 -4e-06 -3e-06
                        CHANNELS 3 Zrotation Yrotation Xrotation
                        JOINT RightHandThumbEnd
                        {
                          OFFSET -3.183852 4e-06 1e-06
                          CHANNELS 3 Zrotation Yrotation Xrotation
                        }
                      }
                    }
                  }
                  JOINT RightHandIndex1
                  {
                    OFFSET -3.253496 -2.33755 -0.127667
                    CHANNELS 3 Zrotation Yrotation Xrotation
                    JOINT RightHandIndex2
                    {
                      OFFSET -6.344434 0.0 0.0
                      CHANNELS 3 Zrotation Yrotation Xrotation
                      JOINT RightHandIndex3
                      {
                        OFFSET -3.654871 0.0 -8e-06
                        CHANNELS 3 Zrotation Yrotation Xrotation
                        JOINT RightHandIndex4
                        {
                          OFFSET -2.327586 -1e-06 0.0
                          CHANNELS 3 Zrotation Yrotation Xrotation
                          JOINT RightHandIndexEnd
                          {
                            OFFSET -2.770001 3e-06 8e-06
                            CHANNELS 3 Zrotation Yrotation Xrotation
                          }
                        }
                      }
                    }
                  }
                  JOINT RightHandMiddle1
                  {
                    OFFSET -3.168223 -0.944764 0.411762
                    CHANNELS 3 Zrotation Yrotation Xrotation
                    JOINT RightHandMiddle2
                    {
                      OFFSET -6.266691 -1e-06 -4e-06
                      CHANNELS 3 Zrotation Yrotation Xrotation
                      JOINT RightHandMiddle3
                      {
                        OFFSET -4.348901 0.0 0.0
                        CHANNELS 3 Zrotation Yrotation Xrotation
                        JOINT RightHandMiddle4
                        {
                          OFFSET -3.00024 2e-06 -4e-06
                          CHANNELS 3 Zrotation Yrotation Xrotation
                          JOINT RightHandMiddleEnd
                          {
                            OFFSET -2.321477 -4e-06 -4e-06
                            CHANNELS 3 Zrotation Yrotation Xrotation
                          }
                        }
                      }
                    }
                  }
                  JOINT RightHandRing1
                  {
                    OFFSET -2.885654 0.293261 -0.119232
                    CHANNELS 3 Zrotation Yrotation Xrotation
                    JOINT RightHandRing2
                    {
                      OFFSET -6.032835 -1e-06 -4e-06
                      CHANNELS 3 Zrotation Yrotation Xrotation
                      JOINT RightHandRing3
                      {
                        OFFSET -4.33881 0.0 -4e-06
                        CHANNELS 3 Zrotation Yrotation Xrotation
                        JOINT RightHandRing4
                        {
                          OFFSET -2.654903 -4e-06 -4e-06
                          CHANNELS 3 Zrotation Yrotation Xrotation
                          JOINT RightHandRingEnd
                          {
                            OFFSET -1.935122 0.0 4e-06
                            CHANNELS 3 Zrotation Yrotation Xrotation
                          }
                        }
                      }
                    }
                  }
                  JOINT RightHandPinky1
                  {
                    OFFSET -2.866241 1.503904 -0.60527
                    CHANNELS 3 Zrotation Yrotation Xrotation
                    JOINT RightHandPinky2
                    {
                      OFFSET -5.553177 -2e-06 0.0
                      CHANNELS 3 Zrotation Yrotation Xrotation
                      JOINT RightHandPinky3
                      {
                        OFFSET -3.062664 -1e-06 -4e-06
                        CHANNELS 3 Zrotation Yrotation Xrotation
                        JOINT RightHandPinky4
                        {
                          OFFSET -1.546529 2e-06 4e-06
                          CHANNELS 3 Zrotation Yrotation Xrotation
                          JOINT RightHandPinkyEnd
                          {
                            OFFSET -1.952341 0.0 -4e-06
                            CHANNELS 3 Zrotation Yrotation Xrotation
                          }
                        }
                      }
                    }
                  }
                }
              }
            }
          }
        }
      }
    }
    JOINT LeftLeg
    {
      OFFSET -8.443107 2.567604 10.043214
      CHANNELS 3 Zrotation Yrotation Xrotation
      JOINT LeftShin
      {
        OFFSET 43.229198 1e-06 -1e-06
        CHANNELS 3 Zrotation Yrotation Xrotation
        JOINT LeftFoot
        {
          OFFSET 42.298611 1e-06 1e-06
          CHANNELS 3 Zrotation Yrotation Xrotation
          JOINT LeftToeBase
          {
            OFFSET 14.165858 1e-06 0.0
            CHANNELS 3 Zrotation Yrotation Xrotation
            JOINT LeftToeEnd
            {
              OFFSET 6.7141 -0.234461 0.0
              CHANNELS 3 Zrotation Yrotation Xrotation
            }
          }
        }
      }
    }
    JOINT RightLeg
    {
      OFFSET -8.303923 2.592729 -10.047278
      CHANNELS 3 Zrotation Yrotation Xrotation
      JOINT RightShin
      {
        OFFSET -43.369682 0.0 1e-06
        CHANNELS 3 Zrotation Yrotation Xrotation
        JOINT RightFoot
        {
          OFFSET -42.260784 4e-06 2e-06
          CHANNELS 3 Zrotation Yrotation Xrotation
          JOINT RightToeBase
          {
            OFFSET -14.222245 -2e-06 -1e-06
            CHANNELS 3 Zrotation Yrotation Xrotation
            JOINT RightToeEnd
            {
              OFFSET -6.660062 0.232574 -2e-06
              CHANNELS 3 Zrotation Yrotation Xrotation
            }
          }
        }
      }
    }
  }
}
MOTION
Frames: 4
Frame Time: 0.03333333333333333
0.0 0.0 0.0 0.0 -0.0 0.0 -4.756236 46.853134 129.904663 109.724052 -56.903778 75.828758 7.949175 -4.636131 -0.458757 -6.925478 -2.258296 -0.348986 22.126116 -7.077795 -4.494164 27.993559 6.794778 4.023163 -2.755387 -0.477456 0.3425 -31.550976 2.952936 -1.68516 6e-06 0.0 -0.0 -0.210357 -0.065149 0.043876 -0.392729 -0.098338 0.090854 -0.380077 -0.01974 -0.020084 -20.617043 -80.365746 31.109968 68.41568 -33.276199 -28.754929 44.471897 0.305475 0.544402 59.250149 71.467354 57.595577 17.636637 -26.322735 52.411201 -19.466665 -14.395604 29.410393 -2e-06 -8.774823 -1e-06 15.310791 -19.229383 6.731058 -0.609776 -1.795653 -3.889327 -4.807092 -11.046815 -2.93785 3e-06 -20.976021 -2e-06 -5.019972 -25.033564 -4.031881 6e-06 0.0 -2e-06 -10.634535 -5.686969 -3.565586 10.573278 -17.922955 -3.113901 2e-06 -13.821214 -2e-06 -0.501776 -31.181511 -4.027017 -12.27576 -60.319069 9.540383 -13.982718 -7.150196 -2.875041 13.772733 -8.401495 -3.218242 0.347737 -34.211555 0.77165 -0.963027 -17.733372 2.621022 -1e-06 1e-06 1e-06 -17.346422 -20.095221 -4.201782 21.757568 -1.638376 3.866431 2e-06 -6.338829 1e-06 -1.69759 -22.591755 -6.194006 -1e-06 -4e-06 -2e-06 160.647354 -70.466728 24.050673 94.371666 -2.781982 -37.54723 10.790355 -0.317127 -0.02198 34.48138 64.021484 38.742802 22.18211 -20.375896 49.933319 -16.701817 -16.743534 28.476534 -3e-06 -12.690603 1e-06 16.20364 -17.935007 2.970598 -0.105919 -1.513856 -4.275882 -5.03904 -5.612872 -2.953557 4e-06 -11.020525 -2e-06 -6.111297 -15.89533 -3.840469 0.0 -1e-06 -0.0 -10.28337 -5.680287 -4.341837 11.028296 -11.302403 -2.372633 -1.384268 -14.238578 -6.320121 -0.625438 -26.924189 -3.8276 -4.02844 -49.831516 -4.607056 -13.708525 -7.363475 -3.720938 18.141153 -14.052739 -3.242676 6e-06 -18.787271 -2e-06 -0.429711 -8.456043 2.555504 0.0 -0.0 -0.0 -15.923536 -20.094482 -5.473584 30.419214 -7.190824 1.735924 3e-06 -8.162925 -0.0 -1.861902 -22.861467 -6.16794 -1e-06 -2e-06 -1e-06 108.09301 1.737798 -6.241465 114.991974 1.670177 0.596788 -36.75843 25.087585 5.937011 -7.236249 0.87992 2.308555 -1.0 -0.0 -1e-06 -17.82847 -12.894765 3.72681 50.821346 -1.632996 0.302892 -24.119719 20.858309 10.178104 -5.416181 0.688189 1.206104 -1.000005 -1e-06 1e-06 
0.0 0.0 0.0 0.0 -0.0 0.0 -4.546224 47.174473 130.938751 110.495178 -57.588589 75.108688 7.660701 -4.719588 -0.451569 -6.987558 -2.078569 -0.406244 21.441345 -7.309434 -4.429519 27.877758 6.850014 4.172323 -2.699174 -0.471546 0.653881 -31.065771 3.482098 -1.526685 5e-06 0.0 0.0 -0.184902 -0.008904 0.023611 -0.387194 -0.012505 0.063425 -0.365094 0.005013 -0.039251 -25.417173 -79.303055 35.323009 66.318306 -30.280817 -28.678473 52.783119 -0.366715 0.130061 67.873932 67.34903 66.375374 17.636618 -26.322729 52.411186 -19.466663 -14.395598 29.410395 -1e-06 -8.774819 -1e-06 15.503411 -19.337624 6.716724 -0.609776 -1.795653 -3.889327 -4.80709 -11.046813 -2.93785 2e-06 -20.976021 1e-06 -5.019972 -25.03356 -4.031881 6e-06 0.0 -1e-06 -10.634535 -5.686972 -3.565586 10.573274 -17.922951 -3.113901 0.0 -13.821212 -2e-06 -0.50178 -31.181507 -4.027014 -11.957051 -60.256401 9.234457 -13.982713 -7.150199 -2.875039 13.772727 -8.401493 -3.218243 0.347729 -34.211555 0.771655 -0.96303 -17.73337 2.621016 -0.0 0.0 1e-06 -17.346418 -20.095222 -4.201776 21.757555 -1.638372 3.866426 1e-06 -6.338824 1e-06 -1.697591 -22.591751 -6.194006 -1e-06 -4e-06 -3e-06 160.580185 -71.067055 24.007118 94.756851 -3.882874 -36.597832 10.772211 -0.507665 -0.007034 35.802357 64.711159 39.693157 22.182116 -20.375891 49.933319 -16.701815 -16.743528 28.47653 -1e-06 -12.690601 -1e-06 16.087706 -17.749298 2.915988 -0.10592 -1.513855 -4.275881 -5.039041 -5.612872 -2.953555 4e-06 -11.020525 -2e-06 -6.111298 -15.895338 -3.84047 -0.0 -1e-06 -0.0 -10.283371 -5.680287 -4.341837 11.028294 -11.302406 -2.372633 -1.384268 -14.238579 -6.32012 -0.625441 -26.924191 -3.827601 -3.833938 -49.691147 -4.743882 -13.708525 -7.363478 -3.720938 18.14115 -14.052738 -3.242676 6e-06 -18.787271 -2e-06 -0.429712 -8.456043 2.555503 0.0 -1e-06 -0.0 -15.923536 -20.094484 -5.473582 30.41921 -7.190823 1.735927 2e-06 -8.162924 -1e-06 -1.861901 -22.861469 -6.167944 -1e-06 -2e-06 -1e-06 108.53373 2.574146 -6.56142 113.541359 1.534998 0.621645 -37.681122 26.679926 5.970934 -7.318381 0.91401 2.110558 -1.000001 0.0 0.0 -18.092049 -14.108967 1.812307 49.428535 -2.453405 1.006446 -24.032911 21.805779 9.381261 -5.80343 0.635111 1.256279 -1.000005 -1e-06 1e-06 
0.0 0.0 0.0 0.0 -0.0 0.0 -4.296669 47.371716 131.867798 110.740913 -58.46888 74.483063 7.330705 -4.748647 -0.303592 -7.240592 -1.950048 -0.480979 20.945942 -7.140385 -4.315024 27.672964 6.553618 4.270026 -2.690122 -0.514583 0.831207 -30.519379 4.153572 -1.411436 6e-06 -0.0 -0.0 -0.170387 -0.032159 0.029659 -0.299932 -0.057776 0.107722 -0.309327 0.005914 -0.067478 -25.210987 -78.535896 34.907452 64.759712 -24.836927 -29.508074 59.331764 -0.327446 0.0116 65.792892 63.351807 68.401772 17.636629 -26.322725 52.411175 -19.466656 -14.395594 29.410378 -1e-06 -8.77482 -2e-06 15.702817 -19.391373 6.766631 -0.609777 -1.795654 -3.889326 -4.807088 -11.046807 -2.937849 2e-06 -20.976015 1e-06 -5.019968 -25.033552 -4.031879 7e-06 2e-06 0.0 -10.634531 -5.68697 -3.565587 10.573271 -17.922945 -3.1139 0.0 -13.821209 2e-06 -0.501778 -31.181498 -4.027015 -11.505901 -60.412189 8.468838 -13.982712 -7.150198 -2.875042 13.772727 -8.401491 -3.218241 0.347733 -34.211544 0.771654 -0.963028 -17.733366 2.62102 -0.0 -1e-06 1e-06 -17.346418 -20.095217 -4.201778 21.757553 -1.638374 3.866428 1e-06 -6.338822 2e-06 -1.697589 -22.591743 -6.194006 -0.0 -6e-06 -3e-06 161.928207 -71.657532 23.274559 94.923645 -4.214221 -35.512505 10.611047 -0.319198 -0.032486 36.608841 65.258125 40.218822 22.182114 -20.375893 49.933319 -16.701811 -16.743526 28.476528 -2e-06 -12.6906 -0.0 16.209589 -17.887434 2.982847 -0.10592 -1.513854 -4.27588 -5.039041 -5.612873 -2.953557 4e-06 -11.02052 -2e-06 -6.111298 -15.895334 -3.84047 -0.0 -1e-06 -0.0 -10.283369 -5.680288 -4.341838 11.028292 -11.302402 -2.372633 -1.384268 -14.238576 -6.320121 -0.62544 -26.924183 -3.827601 -3.934954 -49.99176 -4.568445 -13.708525 -7.363474 -3.72094 18.141148 -14.052737 -3.242673 5e-06 -18.78727 -2e-06 -0.429711 -8.45604 2.555503 -0.0 -0.0 -0.0 -15.923532 -20.094481 -5.473585 30.41921 -7.190822 1.735927 2e-06 -8.162925 -0.0 -1.861902 -22.861467 -6.167943 -2e-06 -3e-06 -1e-06 108.6717 2.931599 -6.670791 112.315056 1.3668 0.616366 -37.935192 27.714981 6.299474 -8.3068 0.951486 1.995687 -0.999998 0.0 -1e-06 -19.163441 -14.854712 -0.044698 49.442318 -3.042657 1.656093 -24.751024 22.360104 8.26223 -4.553092 0.603243 1.277338 -1.000002 -1e-06 -0.0 
0.0 0.0 0.0 0.0 -0.0 0.0 -4.079144 47.903866 132.753799 110.651451 -58.952408 73.944443 7.297448 -4.792164 -0.232071 -7.230644 -1.934016 -0.429338 20.586721 -6.878875 -4.38185 26.93829 6.310552 4.376001 -2.62057 -0.482526 1.065234 -29.730574 4.483171 -1.108669 6e-06 -1e-06 -0.0 -0.166727 -0.022173 0.023674 -0.329591 -0.020285 0.073801 -0.326248 -0.013759 -0.050558 -23.141525 -77.909248 31.763063 63.540657 -18.240217 -30.598835 62.06395 -0.047709 0.155673 61.329746 61.433815 66.987221 17.636629 -26.322735 52.411194 -19.466665 -14.395598 29.410385 -2e-06 -8.774823 -2e-06 15.704227 -18.943747 6.825505 -0.609776 -1.795654 -3.889327 -4.807088 -11.046811 -2.93785 5e-06 -20.976021 1e-06 -5.01997 -25.03356 -4.03188 7e-06 -1e-06 2e-06 -10.634535 -5.686971 -3.56559 10.573274 -17.922951 -3.113899 2e-06 -13.82121 2e-06 -0.501777 -31.181507 -4.027016 -11.160464 -60.36869 8.098333 -13.982714 -7.150198 -2.875042 13.772731 -8.401493 -3.218242 0.347733 -34.211555 0.771656 -0.963029 -17.73337 2.62102 1e-06 -1e-06 0.0 -17.34642 -20.095217 -4.20178 21.757561 -1.638377 3.866428 2e-06 -6.338824 0.0 -1.697589 -22.591747 -6.194008 1e-06 -5e-06 -2e-06 162.543518 -72.619682 22.532055 95.353912 -4.691121 -34.872967 10.318955 -0.346526 -0.012361 37.904793 65.784775 41.335804 22.182116 -20.375898 49.933327 -16.701817 -16.743526 28.476536 -1e-06 -12.690601 -0.0 15.971764 -17.682169 2.99157 -0.105919 -1.513857 -4.275882 -5.039041 -5.612873 -2.953557 4e-06 -11.020523 -1e-06 -6.111297 -15.895334 -3.840471 0.0 0.0 0.0 -10.283371 -5.680286 -4.341839 11.028295 -11.302407 -2.372633 -1.384267 -14.238581 -6.320123 -0.625438 -26.924191 -3.827602 -3.808137 -49.764431 -4.589045 -13.708525 -7.363475 -3.72094 18.141148 -14.052739 -3.242674 6e-06 -18.787271 -3e-06 -0.429711 -8.456043 2.555503 0.0 -0.0 -0.0 -15.923536 -20.094482 -5.473585 30.419214 -7.190827 1.735924 2e-06 -8.162927 -0.0 -1.861902 -22.861473 -6.167943 -1e-06 -2e-06 -1e-06 109.237495 3.083762 -6.561815 111.030785 1.314331 0.622783 -39.44175 29.131054 5.552967 -8.362269 0.920291 1.89414 -0.999999 -0.0 0.0 -20.410671 -15.466508 -1.459149 50.217075 -3.76009 2.335677 -26.270842 22.894123 6.58161 -5.016024 0.528662 1.39434 -1.000002 -1e-06 -0.0 
